<mxfile host="app.diagrams.net" agent="Mozilla/5.0 (X11; Linux x86_64) AppleWebKit/537.36 (KHTML, like Gecko) Chrome/130.0.0.0 Safari/537.36" version="25.0.1" pages="2">
  <diagram name="TODAY" id="LfNDmN8UwuS_WIkBK1Fh">
    <mxGraphModel dx="1111" dy="506" grid="1" gridSize="10" guides="1" tooltips="1" connect="1" arrows="1" fold="1" page="1" pageScale="1" pageWidth="827" pageHeight="1169" math="0" shadow="0">
      <root>
        <mxCell id="0" />
        <mxCell id="1" parent="0" />
        <mxCell id="yVnhmHgyN__cNp2svK8M-5" style="edgeStyle=orthogonalEdgeStyle;rounded=0;orthogonalLoop=1;jettySize=auto;html=1;entryX=0;entryY=0.5;entryDx=0;entryDy=0;" parent="1" source="yVnhmHgyN__cNp2svK8M-1" target="yVnhmHgyN__cNp2svK8M-4" edge="1">
          <mxGeometry relative="1" as="geometry" />
        </mxCell>
        <mxCell id="yVnhmHgyN__cNp2svK8M-1" value="Comercial" style="shape=umlActor;verticalLabelPosition=bottom;verticalAlign=top;html=1;outlineConnect=0;" parent="1" vertex="1">
          <mxGeometry x="100" y="60" width="30" height="60" as="geometry" />
        </mxCell>
        <mxCell id="yVnhmHgyN__cNp2svK8M-8" style="edgeStyle=orthogonalEdgeStyle;rounded=0;orthogonalLoop=1;jettySize=auto;html=1;" parent="1" source="yVnhmHgyN__cNp2svK8M-2" target="yVnhmHgyN__cNp2svK8M-4" edge="1">
          <mxGeometry relative="1" as="geometry" />
        </mxCell>
        <mxCell id="yVnhmHgyN__cNp2svK8M-2" value="Corporativas" style="shape=umlActor;verticalLabelPosition=bottom;verticalAlign=top;html=1;outlineConnect=0;" parent="1" vertex="1">
          <mxGeometry x="100" y="220" width="30" height="60" as="geometry" />
        </mxCell>
        <mxCell id="yVnhmHgyN__cNp2svK8M-9" style="edgeStyle=orthogonalEdgeStyle;rounded=0;orthogonalLoop=1;jettySize=auto;html=1;entryX=0;entryY=0.5;entryDx=0;entryDy=0;" parent="1" source="yVnhmHgyN__cNp2svK8M-3" target="yVnhmHgyN__cNp2svK8M-4" edge="1">
          <mxGeometry relative="1" as="geometry" />
        </mxCell>
        <mxCell id="yVnhmHgyN__cNp2svK8M-3" value="Academica&lt;br&gt;(Universidad)" style="shape=umlActor;verticalLabelPosition=bottom;verticalAlign=top;html=1;outlineConnect=0;" parent="1" vertex="1">
          <mxGeometry x="100" y="380" width="30" height="60" as="geometry" />
        </mxCell>
        <mxCell id="yVnhmHgyN__cNp2svK8M-14" style="edgeStyle=orthogonalEdgeStyle;rounded=0;orthogonalLoop=1;jettySize=auto;html=1;" parent="1" source="yVnhmHgyN__cNp2svK8M-4" target="yVnhmHgyN__cNp2svK8M-13" edge="1">
          <mxGeometry relative="1" as="geometry" />
        </mxCell>
        <mxCell id="yVnhmHgyN__cNp2svK8M-4" value="academiajabes&lt;br&gt;.com" style="rounded=0;whiteSpace=wrap;html=1;" parent="1" vertex="1">
          <mxGeometry x="304" y="195" width="110" height="110" as="geometry" />
        </mxCell>
        <mxCell id="yVnhmHgyN__cNp2svK8M-13" value="PROVEEDOR&lt;br&gt;TeachRL" style="ellipse;whiteSpace=wrap;html=1;" parent="1" vertex="1">
          <mxGeometry x="540" y="210" width="120" height="80" as="geometry" />
        </mxCell>
      </root>
    </mxGraphModel>
  </diagram>
  <diagram id="6vMbSwcWxyci_LYROvxe" name="TOBE">
    <mxGraphModel dx="654" dy="298" grid="1" gridSize="10" guides="1" tooltips="1" connect="1" arrows="1" fold="1" page="1" pageScale="1" pageWidth="827" pageHeight="1169" math="0" shadow="0">
      <root>
        <mxCell id="0" />
        <mxCell id="1" parent="0" />
        <mxCell id="JA56gVAwGdrwxa1gbHRo-1" style="edgeStyle=orthogonalEdgeStyle;rounded=0;orthogonalLoop=1;jettySize=auto;html=1;entryX=0;entryY=0.5;entryDx=0;entryDy=0;" parent="1" source="JA56gVAwGdrwxa1gbHRo-2" target="JA56gVAwGdrwxa1gbHRo-8" edge="1">
          <mxGeometry relative="1" as="geometry" />
        </mxCell>
        <mxCell id="JA56gVAwGdrwxa1gbHRo-2" value="Comercial&lt;br&gt;(Usuarios)" style="shape=umlActor;verticalLabelPosition=bottom;verticalAlign=top;html=1;outlineConnect=0;" parent="1" vertex="1">
          <mxGeometry x="100" y="60" width="30" height="60" as="geometry" />
        </mxCell>
        <mxCell id="JA56gVAwGdrwxa1gbHRo-3" style="edgeStyle=orthogonalEdgeStyle;rounded=0;orthogonalLoop=1;jettySize=auto;html=1;" parent="1" source="JA56gVAwGdrwxa1gbHRo-4" target="JA56gVAwGdrwxa1gbHRo-8" edge="1">
          <mxGeometry relative="1" as="geometry" />
        </mxCell>
        <mxCell id="JA56gVAwGdrwxa1gbHRo-4" value="Corporativas&lt;br&gt;(Empresas)" style="shape=umlActor;verticalLabelPosition=bottom;verticalAlign=top;html=1;outlineConnect=0;" parent="1" vertex="1">
          <mxGeometry x="100" y="220" width="30" height="60" as="geometry" />
        </mxCell>
        <mxCell id="JA56gVAwGdrwxa1gbHRo-5" style="edgeStyle=orthogonalEdgeStyle;rounded=0;orthogonalLoop=1;jettySize=auto;html=1;entryX=0;entryY=0.5;entryDx=0;entryDy=0;" parent="1" source="JA56gVAwGdrwxa1gbHRo-6" target="JA56gVAwGdrwxa1gbHRo-8" edge="1">
          <mxGeometry relative="1" as="geometry" />
        </mxCell>
        <mxCell id="JA56gVAwGdrwxa1gbHRo-6" value="Academica&lt;br&gt;(Universidad)" style="shape=umlActor;verticalLabelPosition=bottom;verticalAlign=top;html=1;outlineConnect=0;" parent="1" vertex="1">
          <mxGeometry x="100" y="380" width="30" height="60" as="geometry" />
        </mxCell>
        <mxCell id="JA56gVAwGdrwxa1gbHRo-7" style="edgeStyle=orthogonalEdgeStyle;rounded=0;orthogonalLoop=1;jettySize=auto;html=1;strokeColor=#9673a6;fillColor=#e1d5e7;" parent="1" source="JA56gVAwGdrwxa1gbHRo-8" target="JA56gVAwGdrwxa1gbHRo-9" edge="1">
          <mxGeometry relative="1" as="geometry" />
        </mxCell>
        <mxCell id="Pae7jYxlhDG4JWvC0xU8-5" value="LOGIN&lt;br&gt;CURSOS&lt;br&gt;ADMIN" style="edgeLabel;html=1;align=center;verticalAlign=middle;resizable=0;points=[];" vertex="1" connectable="0" parent="JA56gVAwGdrwxa1gbHRo-7">
          <mxGeometry x="-0.0522" y="3" relative="1" as="geometry">
            <mxPoint as="offset" />
          </mxGeometry>
        </mxCell>
        <mxCell id="Pae7jYxlhDG4JWvC0xU8-1" style="edgeStyle=orthogonalEdgeStyle;rounded=0;orthogonalLoop=1;jettySize=auto;html=1;entryX=0.5;entryY=1;entryDx=0;entryDy=0;" edge="1" parent="1" source="JA56gVAwGdrwxa1gbHRo-9" target="32zaV0xrlbz7ssy2_yb0-1">
          <mxGeometry relative="1" as="geometry" />
        </mxCell>
        <mxCell id="JA56gVAwGdrwxa1gbHRo-9" value="PROVEEDOR -&amp;nbsp;LMS&lt;br&gt;TeachRL" style="ellipse;whiteSpace=wrap;html=1;fillColor=#e1d5e7;strokeColor=#9673a6;" parent="1" vertex="1">
          <mxGeometry x="520" y="210" width="140" height="80" as="geometry" />
        </mxCell>
        <mxCell id="Pae7jYxlhDG4JWvC0xU8-6" style="edgeStyle=orthogonalEdgeStyle;rounded=0;orthogonalLoop=1;jettySize=auto;html=1;" edge="1" parent="1" source="32zaV0xrlbz7ssy2_yb0-1" target="Il2RCWDoIj_dyQ-sbP2L-2">
          <mxGeometry relative="1" as="geometry" />
        </mxCell>
        <mxCell id="Pae7jYxlhDG4JWvC0xU8-7" style="edgeStyle=orthogonalEdgeStyle;rounded=0;orthogonalLoop=1;jettySize=auto;html=1;entryX=0;entryY=0.5;entryDx=0;entryDy=0;" edge="1" parent="1" source="32zaV0xrlbz7ssy2_yb0-1" target="Il2RCWDoIj_dyQ-sbP2L-3">
          <mxGeometry relative="1" as="geometry" />
        </mxCell>
        <mxCell id="32zaV0xrlbz7ssy2_yb0-1" value="PROVEEDOR - UMAS&lt;br&gt;HABILON" style="ellipse;whiteSpace=wrap;html=1;fillColor=#d5e8d4;strokeColor=#82b366;" parent="1" vertex="1">
          <mxGeometry x="520" y="70" width="140" height="80" as="geometry" />
        </mxCell>
        <mxCell id="Il2RCWDoIj_dyQ-sbP2L-1" value="academiajabes&lt;br&gt;.com" style="rounded=0;whiteSpace=wrap;html=1;fillColor=#f8cecc;strokeColor=#b85450;" parent="1" vertex="1">
          <mxGeometry x="330" y="268" width="110" height="110" as="geometry" />
        </mxCell>
        <mxCell id="JA56gVAwGdrwxa1gbHRo-8" value="academiajabes&lt;br&gt;.com" style="rounded=0;whiteSpace=wrap;html=1;fillColor=#d5e8d4;strokeColor=#82b366;" parent="1" vertex="1">
          <mxGeometry x="304" y="195" width="110" height="110" as="geometry" />
        </mxCell>
        <mxCell id="Il2RCWDoIj_dyQ-sbP2L-2" value="Evol&lt;span style=&quot;background-color: initial;&quot;&gt;Campus&lt;/span&gt;&lt;div&gt;LMS - Habilon&lt;br&gt;(DEMOS)&lt;/div&gt;" style="whiteSpace=wrap;html=1;fillColor=#e1d5e7;strokeColor=#9673a6;" parent="1" vertex="1">
          <mxGeometry x="750" y="40" width="120" height="60" as="geometry" />
        </mxCell>
        <mxCell id="Il2RCWDoIj_dyQ-sbP2L-3" value="miescuela&lt;br&gt;corporativa.com" style="whiteSpace=wrap;html=1;fillColor=#e1d5e7;strokeColor=#9673a6;" parent="1" vertex="1">
          <mxGeometry x="750" y="120" width="120" height="60" as="geometry" />
        </mxCell>
        <mxCell id="Pae7jYxlhDG4JWvC0xU8-3" value="&lt;div&gt;&lt;br&gt;&lt;/div&gt;&lt;div&gt;&lt;br&gt;&lt;/div&gt;servicios" style="shape=note;whiteSpace=wrap;html=1;backgroundOutline=1;darkOpacity=0.05;" vertex="1" parent="1">
          <mxGeometry x="640" y="250" width="60" height="70" as="geometry" />
        </mxCell>
        <mxCell id="Pae7jYxlhDG4JWvC0xU8-4" value="&lt;div&gt;&lt;br&gt;&lt;/div&gt;&lt;div&gt;&lt;br&gt;&lt;/div&gt;&lt;div&gt;Servicios&lt;/div&gt;" style="shape=note;whiteSpace=wrap;html=1;backgroundOutline=1;darkOpacity=0.05;" vertex="1" parent="1">
          <mxGeometry x="280" y="150" width="60" height="70" as="geometry" />
        </mxCell>
      </root>
    </mxGraphModel>
  </diagram>
</mxfile>
